# Exported from Figuro at https://www.figuro.io

mtllib newscene.mtl
o cube1
v -126.75530883259341 1.1368683772161603e-13 -125.24853357873235
v 127.81974391475063 1.1368683772161603e-13 -125.24853357873235
v 127.81974391475063 256.0000000000001 -125.24853357873235
v -126.75530883259341 256.0000000000001 -125.24853357873235
v 127.81974391475063 1.1368683772161603e-13 127.30240862757785
v 127.81974391475063 256.0000000000001 127.30240862757785
v -126.75530883259341 1.1368683772161603e-13 127.30240862757785
v -126.75530883259341 256.0000000000001 127.30240862757785
# 8 vertices
vt 0.495137925127318 1.0000000000000004
vt -0.49929587466699465 1.0000000000000004
vt -0.49929587466699465 2.0000000000000004
vt 0.495137925127318 2.0000000000000004
vt 0.48925208429192324 1.0000000000000004
vt -0.49727503370147597 1.0000000000000004
vt -0.49727503370147597 2.0000000000000004
vt 0.48925208429192324 2.0000000000000004
vt 0.49929587466699465 1.0000000000000004
vt -0.495137925127318 1.0000000000000004
vt -0.495137925127318 2.0000000000000004
vt 0.49929587466699465 2.0000000000000004
vt 0.49727503370147597 1.0000000000000004
vt -0.48925208429192324 1.0000000000000004
vt -0.48925208429192324 2.0000000000000004
vt 0.49727503370147597 2.0000000000000004
vt -0.495137925127318 1.497275033701476
vt 0.49929587466699465 1.497275033701476
vt 0.49929587466699465 0.5107479157080768
vt -0.495137925127318 0.5107479157080768
vt -0.495137925127318 1.4892520842919232
vt 0.49929587466699465 1.4892520842919232
vt 0.49929587466699465 0.502724966298524
vt -0.495137925127318 0.502724966298524
# 24 uvs
vn -0.3333333333333333 -0.3333333333333333 -0.3333333333333333
vn 0.3333333333333333 -0.3333333333333333 -0.3333333333333333
vn 0.3333333333333333 0.3333333333333333 -0.3333333333333333
vn -0.3333333333333333 0.3333333333333333 -0.3333333333333333
vn 0.3333333333333333 -0.3333333333333333 0.3333333333333333
vn 0.3333333333333333 0.3333333333333333 0.3333333333333333
vn -0.3333333333333333 -0.3333333333333333 0.3333333333333333
vn -0.3333333333333333 0.3333333333333333 0.3333333333333333
# 8 normals
usemtl 92a1cf
f 4/4/4 3/3/3 2/2/2 1/1/1 
f 3/8/3 6/7/6 5/6/5 2/5/2 
f 6/12/6 8/11/8 7/10/7 5/9/5 
f 8/16/8 4/15/4 1/14/1 7/13/7 
f 1/20/1 2/19/2 5/18/5 7/17/7 
f 8/24/8 6/23/6 3/22/3 4/21/4 
# 6 polygons
o pyramid4
v -125.79576554877728 256 -123.0185039120297
v 125.84502751418036 256 -123.0185039120297
v 0.024630982701538073 432.7363229644795 1.0981979119642915
v 125.84502751418036 256 125.21489973595828
v -125.79576554877728 256 125.21489973595828
# 5 vertices
vt 0.49138970917491126 2
vt -0.491582138727267 2
vt -0.0000962147761778831 2.690376261579998
vt 0.480541030906366 2
vt -0.48912070209358705 2
vt -0.004289835593610514 2.690376261579998
vt 0.491582138727267 2
vt -0.49138970917491126 2
vt 0.0000962147761778831 2.690376261579998
vt 0.48912070209358705 2
vt -0.480541030906366 2
vt 0.004289835593610514 2.690376261579998
vt -0.49138970917491126 1.489120702093587
vt 0.491582138727267 1.489120702093587
vt 0.491582138727267 0.519458969093634
vt -0.49138970917491126 0.519458969093634
# 16 uvs
vn -0.27154925035505606 0.05155492365608413 -0.272786018621654
vn 0.27154925035505606 0.05155492365608413 -0.272786018621654
vn 0 0.5773323854841261 0
vn 0.27154925035505606 0.05155492365608413 0.272786018621654
vn -0.27154925035505606 0.05155492365608413 0.272786018621654
# 5 normals
usemtl 6495ed
f 11/27/11 10/26/10 9/25/9 
f 11/30/11 12/29/12 10/28/10 
f 11/33/11 13/32/13 12/31/12 
f 11/36/11 9/35/9 13/34/13 
f 9/40/9 10/39/10 12/38/12 13/37/13 
# 5 polygons
o Mesh
v 129.9922333227589 115.69518749367532 -128.85129029168525
v 129.9922333227589 0.01577567765832555 -128.85129029168525
v 252.07518219432092 0.01577567765832555 -128.85129029168525
v 252.07518219432092 116.35758929125126 -128.85129029168525
v 129.9922333227589 140.18494175891178 124.82490777448709
v 129.9922333227589 0.01577567765832555 124.82490777448709
v 252.07518219432092 140.84734355648777 124.82490777448709
v 252.07518219432092 0.01577567765832555 124.82490777448709
# 8 vertices
vt -0.5077821614170269 1.4519343261471693
vt -0.5077821614170269 1.0000616237408528
vt -0.9846686804465661 1.0000616237408528
vt -0.9846686804465661 1.4545218331689502
vt 0.4875972959940902 1.5475974287457492
vt 0.4875972959940902 1.0000616237408528
vt -0.5033253527018955 1.0000616237408528
vt -0.5033253527018955 1.4519343261471693
vt 0.9846686804465661 1.5501849357675304
vt 0.9846686804465661 1.0000616237408528
vt 0.5077821614170269 1.0000616237408528
vt 0.5077821614170269 1.5475974287457492
vt 0.5033253527018955 1.4545218331689502
vt 0.5033253527018955 1.0000616237408528
vt -0.4875972959940902 1.0000616237408528
vt -0.4875972959940902 1.5501849357675304
vt 0.5077821614170269 0.4966746472981045
vt 0.5077821614170269 1.4875972959940902
vt 0.9846686804465661 1.4875972959940902
vt 0.9846686804465661 0.4966746472981045
vt 0.9846686804465661 1.5033253527018955
vt 0.9846686804465661 0.5124027040059098
vt 0.5077821614170269 0.5124027040059098
vt 0.5077821614170269 1.5033253527018955
# 24 uvs
vn -0.3351335488201459 0.3317859583693616 -0.365363758935195
vn -0.3333333333333333 -0.3333333333333333 -0.3333333333333333
vn 0.3333333333333333 -0.3333333333333333 -0.3333333333333333
vn 0.3315331178465208 0.3317859583693616 -0.365363758935195
vn -0.3351335488201459 0.3317859583693616 0.30130290773147167
vn -0.3333333333333333 -0.3333333333333333 0.3333333333333333
vn 0.3315331178465208 0.3317859583693616 0.30130290773147167
vn 0.3333333333333333 -0.3333333333333333 0.3333333333333333
# 8 normals
usemtl 92a1cf
f 17/44/17 16/43/16 15/42/15 14/41/14 
f 14/48/14 15/47/15 19/46/19 18/45/18 
f 18/52/18 19/51/19 21/50/21 20/49/20 
f 20/56/20 21/55/21 16/54/16 17/53/17 
f 16/60/16 21/59/21 19/58/19 15/57/15 
f 14/64/14 18/63/18 20/62/20 17/61/17 
# 6 polygons
o pyramid19
v 248.513583104448 116.88027870624887 -123.23685804656816
v 252.32745709514427 141.1019556935921 124.29270872894182
v 190.02087493437966 263.5471497904606 -13.922978624276439
v 121.5105536227917 141.69130372299966 130.69489377948298
v 119.44746859552558 116.67756923503339 -134.7875329437679
# 5 vertices
vt 0.48139397674440687 1.4565635886962847
vt -0.485518393472429 1.5511795144280942
vt 0.05438663525107984 2.0294810538689867
vt 0.9856541292779073 0.514481606527571
vt 0.4746506000890301 0.4894730711738946
vt 0.7422690427124206 1.0543866352510798
vt 0.5105269288261054 1.5534816551679675
vt -0.5265138005615934 1.4557717548243492
vt -0.05438663525107984 2.0294810538689867
vt -0.4665916742012718 1.4557717548243492
vt -0.97075618400175 1.4565635886962847
vt -0.7422690427124206 2.0294810538689867
vt 0.4665916742012718 0.47348619943840664
vt 0.4746506000890301 1.5105269288261054
vt 0.9856541292779073 1.485518393472429
vt 0.97075618400175 0.5186060232555931
# 16 uvs
vn 0.3263898726673871 0.007505286753070754 -0.24814780537428227
vn 0.3150511306606417 0.054876308059101264 0.23188891488285093
vn 0.032280625511394795 0.5576701232437558 -0.055610353799816215
vn -0.2855985585447789 0.07244367762525968 0.2377153388329666
vn -0.2742598165380335 0.02507265631922917 -0.24232138142416657
# 5 normals
usemtl b4a7d6
f 24/67/24 23/66/23 22/65/22 
f 24/70/24 25/69/25 23/68/23 
f 24/73/24 26/72/26 25/71/25 
f 24/76/24 22/75/22 26/74/26 
f 22/80/22 23/79/23 25/78/25 26/77/26 
# 5 polygons