# Exported from Figuro at https://www.figuro.io

mtllib newscene.mtl
o polyline22
v -423.25172214374265 27.6249999999998 -1.9615226476085361
v -214.26516023030538 27.624999999999744 -384.6986789646181
v 210.94334708256645 27.624999999999744 -384.95452986678333
v 422.3790905898137 27.624999999999915 -1.5664063745084924
v 210.17505588768643 27.6249999999998 381.4497483664617
v -212.08348313681446 27.6249999999998 379.58906784670495
v -424.017308672481 27.6249999999998 -2.168140526687992
# 7 vertices
vt -1.6533270396239947 1.0076621978422209
vt -0.8369732821496304 2.5027292147055396
vt 0.8239974495412752 2.5037286322921224
vt 1.6499183226164598 1.006118774900424
vt 0.8209963120612751 -0.4900380795564909
vt -0.8284511060031815 -0.4827697962761912
vt -0.8284511060031815 -0.4827697962761912
vt -1.656317612001879 1.008469298932375
vt -1.6533270396239947 1.0076621978422209
# 9 uvs
vn -4.4838758065856535e-17 1 2.317953888648497e-15
vn -8.967751613171307e-17 1 -8.2383031647484e-17
vn -8.967751613171307e-17 1 -8.2383031647484e-17
vn -8.967751613171307e-17 1 -8.2383031647484e-17
vn -8.967751613171307e-17 1 -8.2383031647484e-17
vn -4.4838758065856535e-17 1 2.317953888648497e-15
vn 0 1 4.7182908089444775e-15
# 7 normals
usemtl f9cb9c
f 6/6/6 5/5/5 4/4/4 3/3/3 2/2/2 1/1/1 
f 1/9/1 7/8/7 6/7/6 
# 2 polygons