# Exported from Figuro at https://www.figuro.io

mtllib newscene.mtl
o cube1
v -126.75530883259341 1.1368683772161603e-13 -125.24853357873235
v 127.81974391475063 1.1368683772161603e-13 -125.24853357873235
v 127.81974391475063 256.0000000000001 -125.24853357873235
v -126.75530883259341 256.0000000000001 -125.24853357873235
v 127.81974391475063 1.1368683772161603e-13 127.30240862757785
v 127.81974391475063 256.0000000000001 127.30240862757785
v -126.75530883259341 1.1368683772161603e-13 127.30240862757785
v -126.75530883259341 256.0000000000001 127.30240862757785
# 8 vertices
vt 0.495137925127318 1.0000000000000004
vt -0.49929587466699465 1.0000000000000004
vt -0.49929587466699465 2.0000000000000004
vt 0.495137925127318 2.0000000000000004
vt 0.48925208429192324 1.0000000000000004
vt -0.49727503370147597 1.0000000000000004
vt -0.49727503370147597 2.0000000000000004
vt 0.48925208429192324 2.0000000000000004
vt 0.49929587466699465 1.0000000000000004
vt -0.495137925127318 1.0000000000000004
vt -0.495137925127318 2.0000000000000004
vt 0.49929587466699465 2.0000000000000004
vt 0.49727503370147597 1.0000000000000004
vt -0.48925208429192324 1.0000000000000004
vt -0.48925208429192324 2.0000000000000004
vt 0.49727503370147597 2.0000000000000004
vt -0.495137925127318 1.497275033701476
vt 0.49929587466699465 1.497275033701476
vt 0.49929587466699465 0.5107479157080768
vt -0.495137925127318 0.5107479157080768
vt -0.495137925127318 1.4892520842919232
vt 0.49929587466699465 1.4892520842919232
vt 0.49929587466699465 0.502724966298524
vt -0.495137925127318 0.502724966298524
# 24 uvs
vn -0.3333333333333333 -0.3333333333333333 -0.3333333333333333
vn 0.3333333333333333 -0.3333333333333333 -0.3333333333333333
vn 0.3333333333333333 0.3333333333333333 -0.3333333333333333
vn -0.3333333333333333 0.3333333333333333 -0.3333333333333333
vn 0.3333333333333333 -0.3333333333333333 0.3333333333333333
vn 0.3333333333333333 0.3333333333333333 0.3333333333333333
vn -0.3333333333333333 -0.3333333333333333 0.3333333333333333
vn -0.3333333333333333 0.3333333333333333 0.3333333333333333
# 8 normals
usemtl 92a1cf
f 4/4/4 3/3/3 2/2/2 1/1/1 
f 3/8/3 6/7/6 5/6/5 2/5/2 
f 6/12/6 8/11/8 7/10/7 5/9/5 
f 8/16/8 4/15/4 1/14/1 7/13/7 
f 1/20/1 2/19/2 5/18/5 7/17/7 
f 8/24/8 6/23/6 3/22/3 4/21/4 
# 6 polygons
o pyramid4
v -125.79576554877728 256 -123.0185039120297
v 125.84502751418036 256 -123.0185039120297
v 0.024630982701538073 432.7363229644795 1.0981979119642915
v 125.84502751418036 256 125.21489973595828
v -125.79576554877728 256 125.21489973595828
# 5 vertices
vt 0.49138970917491126 2
vt -0.491582138727267 2
vt -0.0000962147761778831 2.690376261579998
vt 0.480541030906366 2
vt -0.48912070209358705 2
vt -0.004289835593610514 2.690376261579998
vt 0.491582138727267 2
vt -0.49138970917491126 2
vt 0.0000962147761778831 2.690376261579998
vt 0.48912070209358705 2
vt -0.480541030906366 2
vt 0.004289835593610514 2.690376261579998
vt -0.49138970917491126 1.489120702093587
vt 0.491582138727267 1.489120702093587
vt 0.491582138727267 0.519458969093634
vt -0.49138970917491126 0.519458969093634
# 16 uvs
vn -0.27154925035505606 0.05155492365608413 -0.272786018621654
vn 0.27154925035505606 0.05155492365608413 -0.272786018621654
vn 0 0.5773323854841261 0
vn 0.27154925035505606 0.05155492365608413 0.272786018621654
vn -0.27154925035505606 0.05155492365608413 0.272786018621654
# 5 normals
usemtl 6495ed
f 11/27/11 10/26/10 9/25/9 
f 11/30/11 12/29/12 10/28/10 
f 11/33/11 13/32/13 12/31/12 
f 11/36/11 9/35/9 13/34/13 
f 9/40/9 10/39/10 12/38/12 13/37/13 
# 5 polygons